<svg xmlns="http://www.w3.org/2000/svg" version="1.0" preserveAspectRatio="xMidYMid meet" viewBox="124.84 129.99 200.26 219.5">  <g transform="translate(0.000000,796.000000) scale(0.050000,-0.050000)" fill="#4b96ff" stroke="none"> <path d="M5320 13314 c0 -3 -45 -122 -100 -264 -122 -316 -122 -294 5 -337 143 -49 131 -60 259 234 l115 263 -115 54 c-101 48 -164 67 -164 50z"/> <path d="M4445 13189 c-128 -59 -129 -43 5 -309 l110 -220 110 54 c132 65 131 50 23 308 -97 232 -101 235 -248 167z"/> <path d="M3027 13119 c-577 -112 -515 -907 125 -1597 134 -146 158 -154 375 -121 220 32 422 4 620 -88 475 -221 646 -827 256 -905 -58 -12 -63 -7 -124 117 -509 1045 -2025 719 -1749 -376 413 -1635 2875 -1621 3022 17 l14 156 142 72 c647 323 940 811 723 1203 -194 350 -634 417 -1294 197 l-198 -66 -163 201 c-644 795 -1341 1269 -1749 1190z m426 -349 c310 -153 762 -570 1173 -1084 236 -296 217 -288 513 -188 495 168 757 195 926 96 362 -212 113 -653 -558 -991 -164 -82 -198 -130 -214 -297 -67 -724 -522 -1129 -1239 -1102 -601 22 -1149 469 -1265 1031 -135 657 662 906 1145 357 400 -455 -35 -847 -450 -405 -128 136 -109 134 -242 17 l-108 -95 128 -130 c405 -410 946 -388 1089 45 26 76 43 98 86 107 769 164 524 1199 -357 1504 -64 22 -176 32 -384 34 -340 3 -311 -11 -501 241 -497 658 -347 1159 258 860z"/> <path d="M5795 12569 c-118 -60 -215 -113 -215 -119 0 -10 98 -212 109 -225 5 -6 375 145 435 177 31 17 29 29 -20 148 -64 154 -42 153 -309 19z"/> </g> </svg>